# xmcd
#
# Track frame offsets:
#	150
#	9947
#	18317
#	28037
#	37157
#	50927
#	62372
#	72092
#	85637
#	95723
#	106945
#	119065
#	127510
#	138505
#	148150
#	158395
#	169165
#	182035
#	192880
#	203575
#	215320
#	226540
#	235585
#	245455
#	256075
#
# Disc length: 3548 seconds
#
# Revision: 1
# Processed by: cddbd v1.5.2PL0 Copyright (c) Steve Scherf et al.
# Submitted via: audiograbber 1.83.01
#
DISCID=450dda19
DTITLE=Various Artist - Country  Western CD 26
DYEAR=1957
DGENRE=Country
TTITLE0=Webb Pierce - Bye Bye Love
TTITLE1=Johnny Cash - Wreck Of The old '97
TTITLE2=George Jones - Too Much Water
TTITLE3=Jim Reeves - Young Hearts
TTITLE4=Marty Robbins - The Same Two Lips
TTITLE5=Hank Snow - Marriage And Divorce
TTITLE6=Johnny Duncan and His Blue Grass Boys - Rockabilly Baby
TTITLE7=Jerry Lee Lewis - You Win Again
TTITLE8=Ned Miller - From A Jack To A King
TTITLE9=The Louvin Brothers - Don't Laugh
TTITLE10=Kitty Wells and Webb Pierce - Oh, So Many Years
TTITLE11=Johnny Cash - Country Boy
TTITLE12=Sonny James - First Date, First Kiss, First Love
TTITLE13=Bobby Helms - Jingle Bell Rock
TTITLE14=Rusty and Doug Kershaw - I Never Had The Blues
TTITLE15=Bonnie Guitar - Mister Fire Eyes
TTITLE16=Carl Smith - You Can't Hurt Me Anymore
TTITLE17=The Louvin Brothers - Plenty Of Everything But You
TTITLE18=Hank Thompson - Rockin' In The Congo
TTITLE19=Jim Reeves - Final Affair
TTITLE20=Johnny Duncan and His Blue Grass Boys - Last Train To San Fernando
TTITLE21=Melvin Endsley - I Like You Kind Of Love
TTITLE22=Johnny Cash - Rock Island Line
TTITLE23=Hank Snow - Calypso Sweetheart
TTITLE24=George Jones - Don't Stop The Music
EXTD=
EXTT0=
EXTT1=
EXTT2=
EXTT3=
EXTT4=
EXTT5=
EXTT6=
EXTT7=
EXTT8=
EXTT9=
EXTT10=
EXTT11=
EXTT12=
EXTT13=
EXTT14=
EXTT15=
EXTT16=
EXTT17=
EXTT18=
EXTT19=
EXTT20=
EXTT21=
EXTT22=
EXTT23=
EXTT24=
PLAYORDER=
